<svg height="511pt" viewBox="-7 1 511 511.99975" width="511pt" xmlns="http://www.w3.org/2000/svg"><g fill="#fed370"><path d="m48.085938 186.835938c-.011719 0-.023438 0-.035157 0-4.140625-.019532-7.484375-3.390626-7.464843-7.535157l.015624-3.347656c.019532-4.128906 3.375-7.464844 7.5-7.464844h.035157c4.144531.019531 7.484375 3.394531 7.464843 7.539063l-.015624 3.347656c-.019532 4.128906-3.375 7.460938-7.5 7.460938zm0 0"/><path d="m47.980469 220.914062c-.011719 0-.023438 0-.035157 0-4.144531-.019531-7.484374-3.390624-7.464843-7.535156l.015625-3.347656c.019531-4.128906 3.375-7.464844 7.5-7.464844h.035156c4.144531.019532 7.484375 3.394532 7.464844 7.539063l-.015625 3.347656c-.019531 4.128906-3.375 7.460937-7.5 7.460937zm0 0"/><path d="m66.753906 202.265625c-.011718 0-.023437 0-.035156 0l-3.347656-.019531c-4.140625-.019532-7.484375-3.390625-7.464844-7.535156.019531-4.128907 3.375-7.464844 7.5-7.464844h.035156l3.347656.019531c4.144532.019531 7.484376 3.390625 7.464844 7.535156-.019531 4.128907-3.375 7.464844-7.5 7.464844zm0 0"/><path d="m32.675781 202.160156c-.011719 0-.023437 0-.035156 0l-3.347656-.015625c-4.140625-.023437-7.484375-3.394531-7.464844-7.535156.019531-4.132813 3.375-7.464844 7.5-7.464844h.035156l3.347657.015625c4.144531.019532 7.484374 3.390625 7.464843 7.535156-.019531 4.128907-3.375 7.464844-7.5 7.464844zm0 0"/><path d="m264.179688 477.921875c-.011719 0-.023438 0-.035157 0-4.144531-.019531-7.484375-3.394531-7.46875-7.535156l.019531-3.347657c.019532-4.128906 3.371094-7.464843 7.496094-7.464843h.039063c4.140625.019531 7.480469 3.390625 7.464843 7.535156l-.019531 3.347656c-.015625 4.128907-3.371093 7.464844-7.496093 7.464844zm0 0"/><path d="m264.074219 512c-.011719 0-.027344 0-.039063 0-4.140625-.019531-7.484375-3.394531-7.460937-7.535156l.015625-3.347656c.019531-4.132813 3.371094-7.464844 7.496094-7.464844h.039062c4.140625.019531 7.484375 3.394531 7.464844 7.535156l-.015625 3.347656c-.023438 4.128906-3.375 7.464844-7.5 7.464844zm0 0"/><path d="m282.847656 493.347656c-.015625 0-.027344 0-.039062 0l-3.347656-.015625c-4.140626-.019531-7.484376-3.394531-7.464844-7.535156.023437-4.132813 3.375-7.464844 7.5-7.464844h.039062l3.347656.015625c4.140626.019532 7.484376 3.394532 7.460938 7.535156-.019531 4.132813-3.371094 7.464844-7.496094 7.464844zm0 0"/><path d="m248.769531 493.242188c-.015625 0-.027343 0-.039062 0l-3.347657-.015626c-4.140624-.019531-7.484374-3.394531-7.464843-7.535156.023437-4.128906 3.375-7.464844 7.5-7.464844h.039062l3.347657.015626c4.140624.019531 7.484374 3.394531 7.464843 7.535156-.023437 4.132812-3.375 7.464844-7.5 7.464844zm0 0"/><path d="m313.929688 420.035156c-.011719 0-.023438 0-.035157 0-4.140625-.019531-7.484375-3.394531-7.464843-7.535156l.015624-3.347656c.019532-4.128906 3.375-7.464844 7.5-7.464844h.039063c4.140625.019531 7.480469 3.394531 7.460937 7.535156l-.015624 3.347656c-.019532 4.132813-3.375 7.464844-7.5 7.464844zm0 0"/><path d="m313.828125 454.113281c-.015625 0-.027344 0-.039063 0-4.140624-.019531-7.484374-3.394531-7.464843-7.535156l.015625-3.347656c.023437-4.132813 3.375-7.464844 7.5-7.464844h.039062c4.140625.019531 7.484375 3.394531 7.460938 7.535156l-.015625 3.347657c-.019531 4.128906-3.371094 7.464843-7.496094 7.464843zm0 0"/><path d="m332.597656 435.460938c-.011718 0-.023437 0-.035156 0l-3.347656-.015626c-4.140625-.019531-7.484375-3.394531-7.464844-7.535156.019531-4.132812 3.375-7.464844 7.5-7.464844h.035156l3.347656.015626c4.144532.019531 7.484376 3.394531 7.464844 7.535156-.019531 4.128906-3.375 7.464844-7.5 7.464844zm0 0"/><path d="m298.523438 435.355469c-.015626 0-.027344 0-.039063 0l-3.347656-.015625c-4.140625-.019532-7.484375-3.394532-7.464844-7.535156.023437-4.132813 3.375-7.464844 7.5-7.464844h.039063l3.347656.015625c4.140625.019531 7.484375 3.394531 7.464844 7.535156-.023438 4.132813-3.375 7.464844-7.5 7.464844zm0 0"/><path d="m191.214844 399.574219c-2.902344 2.828125-4.21875 6.902343-3.527344 10.886719l10.441406 60.921874c1.722656 10.039063-8.820312 17.703126-17.847656 12.96875l-54.699219-28.761718c-3.59375-1.894532-7.875-1.894532-11.453125 0l-54.699218 28.761718c-9.03125 4.734376-19.570313-2.929687-17.847657-12.96875l1.535157-8.964843 8.90625-51.957031c.691406-3.984376-.640626-8.058594-3.542969-10.886719l-44.257813-43.136719c-7.292968-7.109375-3.269531-19.507812 6.828125-20.984375l61.160157-8.882813c4.007812-.578124 7.464843-3.097656 9.261718-6.726562l27.355469-55.425781c4.5-9.140625 17.539063-9.140625 22.054687 0l27.355469 55.425781c1.785157 3.628906 5.253907 6.148438 9.261719 6.726562l18.90625 2.742188 42.253906 6.140625c10.085938 1.476563 14.121094 13.875 6.8125 20.984375zm0 0"/></g><path d="m191.214844 399.574219c-2.902344 2.828125-4.21875 6.902343-3.527344 10.886719l10.441406 60.921874c1.722656 10.039063-8.820312 17.703126-17.847656 12.96875l-54.699219-28.761718c-3.59375-1.894532-7.875-1.894532-11.453125 0l-54.699218 28.761718c-9.03125 4.734376-19.570313-2.929687-17.847657-12.96875l1.535157-8.964843c95.882812-40.898438 131.605468-92.03125 143.289062-133.105469l42.253906 6.140625c10.085938 1.476563 14.121094 13.875 6.8125 20.984375zm0 0" fill="#fda736"/><path d="m157.597656 233.503906c-1.921875 0-3.839844-.734375-5.304687-2.199218-2.929688-2.929688-2.929688-7.675782 0-10.605469l193.625-193.625c2.925781-2.925781 7.675781-2.925781 10.605469 0 2.929687 2.929687 2.929687 7.679687 0 10.609375l-193.621094 193.621094c-1.464844 1.464843-3.386719 2.199218-5.304688 2.199218zm0 0" fill="#fed370"/><path d="m274.925781 281.742188c-1.917969 0-3.839843-.730469-5.304687-2.195313-2.925782-2.929687-2.925782-7.679687 0-10.605469l159.082031-159.082031c2.925781-2.925781 7.675781-2.925781 10.605469 0 2.929687 2.929687 2.929687 7.679687 0 10.605469l-159.078125 159.082031c-1.46875 1.460937-3.386719 2.195313-5.304688 2.195313zm0 0" fill="#fed370"/><path d="m287.039062 217.898438c-1.921874 0-3.839843-.734376-5.304687-2.199219-2.929687-2.925781-2.929687-7.675781 0-10.605469l202.898437-202.898438c2.929688-2.925781 7.679688-2.925781 10.605469 0 2.929688 2.929688 2.929688 7.679688 0 10.609376l-202.898437 202.894531c-1.464844 1.464843-3.382813 2.199219-5.300782 2.199219zm0 0" fill="#fda736"/><path d="m210.671875 294.265625c-1.917969 0-3.839844-.734375-5.300781-2.199219-2.929688-2.929687-2.929688-7.675781 0-10.605468l46.792968-46.792969c2.925782-2.929688 7.675782-2.929688 10.605469 0 2.929688 2.929687 2.929688 7.679687 0 10.605469l-46.792969 46.792968c-1.464843 1.464844-3.386718 2.199219-5.304687 2.199219zm0 0" fill="#fda736"/><path d="m442.160156 172.320312c-1.921875 0-3.839844-.730468-5.304687-2.195312-2.929688-2.929688-2.929688-7.679688 0-10.605469l10.375-10.375c2.929687-2.929687 7.679687-2.929687 10.605469 0 2.929687 2.925781 2.929687 7.675781 0 10.605469l-10.375 10.375c-1.464844 1.464844-3.382813 2.195312-5.300782 2.195312zm0 0" fill="#fed370"/><path d="m154.644531 154.519531c-1.921875 0-3.839843-.730469-5.304687-2.195312-2.929688-2.929688-2.929688-7.679688 0-10.605469l10.375-10.375c2.929687-2.929688 7.679687-2.929688 10.605468 0 2.929688 2.929688 2.929688 7.675781 0 10.605469l-10.375 10.375c-1.464843 1.464843-3.382812 2.195312-5.300781 2.195312zm0 0" fill="#fed370"/><path d="m210.671875 121.636719c-1.917969 0-3.839844-.730469-5.300781-2.195313-2.929688-2.929687-2.929688-7.679687 0-10.609375l10.375-10.375c2.925781-2.925781 7.675781-2.925781 10.605468 0 2.929688 2.929688 2.929688 7.679688 0 10.609375l-10.375 10.375c-1.464843 1.460938-3.386718 2.195313-5.304687 2.195313zm0 0" fill="#fed370"/><path d="m249.21875 405.984375c-1.917969 0-3.835938-.730469-5.300781-2.195313-2.929688-2.929687-2.929688-7.679687 0-10.605468l112.804687-112.808594c2.929688-2.925781 7.679688-2.925781 10.605469 0 2.929687 2.929688 2.929687 7.679688 0 10.609375l-112.804687 112.804687c-1.464844 1.464844-3.382813 2.195313-5.304688 2.195313zm0 0" fill="#fed370"/><path d="m415.558594 374.253906c-.011719 0-.019532 0-.03125 0h-.125c-4.144532-.015625-7.488282-3.386718-7.472656-7.527344.015624-4.132812 3.371093-7.472656 7.5-7.472656h.03125.125c4.144531.015625 7.488281 3.386719 7.472656 7.527344-.019532 4.132812-3.371094 7.472656-7.5 7.472656zm0 0" fill="#fda736"/><path d="m8.132812 452.441406c-.007812 0-.019531 0-.027343 0h-.125c-4.144531-.019531-7.488281-3.386718-7.472657-7.53125.015626-4.132812 3.371094-7.46875 7.5-7.46875h.027344.128906c4.140626.015625 7.488282 3.386719 7.46875 7.527344-.015624 4.132812-3.371093 7.472656-7.5 7.472656zm0 0" fill="#fda736"/><path d="m391.609375 333.804688c-.011719 0-.019531 0-.027344 0h-.128906c-4.140625-.019532-7.488281-3.390626-7.46875-7.53125.015625-4.132813 3.371094-7.46875 7.5-7.46875h.027344.125c4.144531.015624 7.488281 3.386718 7.472656 7.527343-.015625 4.132813-3.371094 7.472657-7.5 7.472657zm0 0" fill="#fda736"/><path d="m388.550781 379.175781c-.007812 0-.019531 0-.027343 0h-.128907c-4.140625-.015625-7.484375-3.386719-7.46875-7.53125.015625-4.128906 3.371094-7.46875 7.5-7.46875h.027344.128906c4.140625.015625 7.484375 3.386719 7.46875 7.527344-.015625 4.132813-3.371093 7.472656-7.5 7.472656zm0 0" fill="#fd7504"/><path d="m29.054688 271.246094c-3.894532 0-7.183594-3.007813-7.472657-6.957032-.300781-4.128906 2.804688-7.722656 6.9375-8.023437l.125-.007813c4.132813-.296874 7.726563 2.804688 8.023438 6.9375.300781 4.128907-2.800781 7.722657-6.933594 8.023438l-.128906.007812c-.183594.011719-.367188.019532-.550781.019532zm0 0" fill="#fd7504"/></svg>
